<svg width="241" height="274" viewBox="0 0 241 274" fill="none" xmlns="http://www.w3.org/2000/svg">
<path d="M26.2188 259.176C22.7969 259.176 20.2656 258.273 18.625 256.469C16.9844 254.664 16.1641 251.857 16.1641 248.049C16.1641 240.631 19.5332 236.922 26.2715 236.922C27.2559 236.922 28.2109 237.027 29.1367 237.238C30.0625 237.438 30.8125 237.689 31.3867 237.994C31.9609 238.299 32.248 238.592 32.248 238.873C32.248 239.049 32.1836 239.283 32.0547 239.576C31.9375 239.869 31.7969 240.127 31.6328 240.35C31.4688 240.572 31.3223 240.684 31.1934 240.684C31.1348 240.684 30.9707 240.607 30.7012 240.455C30.0918 240.127 29.4531 239.852 28.7852 239.629C28.1172 239.406 27.3027 239.295 26.3418 239.295C23.8223 239.295 21.9648 239.998 20.7695 241.404C19.5859 242.799 18.9941 245.025 18.9941 248.084C18.9941 251.072 19.5801 253.275 20.752 254.693C21.9355 256.1 23.7578 256.803 26.2188 256.803C27.25 256.803 28.1348 256.68 28.873 256.434C29.6113 256.188 30.3203 255.883 31 255.52C31.3281 255.344 31.5273 255.256 31.5977 255.256C31.7266 255.256 31.873 255.367 32.0371 255.59C32.2129 255.812 32.3652 256.064 32.4941 256.346C32.623 256.615 32.6875 256.809 32.6875 256.926C32.6875 257.219 32.3887 257.547 31.791 257.91C31.2051 258.262 30.4141 258.561 29.418 258.807C28.4336 259.053 27.3672 259.176 26.2188 259.176ZM39.8312 259.053C38.9875 259.053 38.5656 258.824 38.5656 258.367V237.748C38.5656 237.279 38.9875 237.045 39.8312 237.045H40.0773C40.9094 237.045 41.3254 237.279 41.3254 237.748V246.59H52.6457V237.748C52.6457 237.279 53.0617 237.045 53.8937 237.045H54.1398C54.9719 237.045 55.3879 237.279 55.3879 237.748V258.367C55.3879 258.602 55.2883 258.777 55.0891 258.895C54.8898 259 54.5734 259.053 54.1398 259.053H53.8937C53.4602 259.053 53.1437 259 52.9445 258.895C52.7453 258.777 52.6457 258.602 52.6457 258.367V248.963H41.3254V258.367C41.3254 258.824 40.9094 259.053 40.0773 259.053H39.8312ZM61.9867 259.053C61.518 259.053 61.1781 259.012 60.9672 258.93C60.7562 258.836 60.6508 258.701 60.6508 258.525C60.6508 258.443 60.6801 258.303 60.7387 258.104L68.1391 237.555C68.2562 237.215 68.6723 237.045 69.3871 237.045H70.3012C71.016 237.045 71.432 237.215 71.5492 237.555L78.9496 258.121C79.0082 258.25 79.0375 258.385 79.0375 258.525C79.0375 258.877 78.598 259.053 77.7191 259.053H77.4555C76.7289 259.053 76.307 258.889 76.1898 258.561L74.3617 253.428H65.1859L63.393 258.561C63.2875 258.889 62.8715 259.053 62.1449 259.053H61.9867ZM73.518 251.055L70.2484 241.756C70.1547 241.498 70.0785 241.205 70.0199 240.877C69.9613 240.549 69.9086 240.232 69.8617 239.928H69.7914C69.6508 240.713 69.4926 241.322 69.3168 241.756L66.0473 251.055H73.518ZM85.5133 259.053C84.6695 259.053 84.2477 258.824 84.2477 258.367V237.748C84.2477 237.279 84.6695 237.045 85.5133 237.045H85.7594C86.5914 237.045 87.0074 237.279 87.0074 237.748V258.367C87.0074 258.824 86.5914 259.053 85.7594 259.053H85.5133ZM95.9266 259.053C95.4812 259.053 95.159 259 94.9598 258.895C94.7605 258.777 94.6609 258.602 94.6609 258.367V237.748C94.6609 237.279 95.0828 237.045 95.9266 237.045H96.577C96.9051 237.045 97.1629 237.092 97.3504 237.186C97.5496 237.279 97.7254 237.432 97.8777 237.643L107.862 252.707L108.794 254.465V237.748C108.794 237.279 109.204 237.045 110.024 237.045H110.27C111.091 237.045 111.501 237.279 111.501 237.748V258.367C111.501 258.602 111.401 258.777 111.202 258.895C111.003 259 110.692 259.053 110.27 259.053H109.637C109.345 259.053 109.11 259.018 108.934 258.947C108.759 258.877 108.624 258.766 108.53 258.613L98.2293 243.074L97.3855 241.457V258.367C97.3855 258.824 96.9695 259.053 96.1375 259.053H95.9266ZM145.511 263.623C145.359 263.623 143.724 263.008 140.607 261.777C137.489 260.559 135.591 259.814 134.911 259.545C134.021 259.17 133.423 258.93 133.118 258.824C131.15 258.027 129.673 256.75 128.689 254.992C127.716 253.223 127.23 250.943 127.23 248.154C127.23 244.486 128.05 241.697 129.691 239.787C131.331 237.877 133.716 236.922 136.845 236.922C139.986 236.922 142.376 237.883 144.017 239.805C145.669 241.715 146.495 244.498 146.495 248.154C146.495 251.107 145.956 253.492 144.878 255.309C143.812 257.113 142.259 258.291 140.22 258.842V258.965L146.372 260.916C146.665 260.998 146.812 261.15 146.812 261.373C146.812 261.525 146.747 261.789 146.618 262.164C146.489 262.539 146.325 262.873 146.126 263.166C145.927 263.471 145.722 263.623 145.511 263.623ZM136.845 256.908C139.025 256.908 140.706 256.158 141.89 254.658C143.073 253.146 143.665 250.979 143.665 248.154C143.665 246.268 143.396 244.662 142.857 243.338C142.329 242.014 141.556 241.012 140.536 240.332C139.517 239.641 138.286 239.295 136.845 239.295C135.415 239.295 134.191 239.641 133.171 240.332C132.163 241.012 131.39 242.014 130.851 243.338C130.323 244.662 130.06 246.268 130.06 248.154C130.06 250.99 130.646 253.158 131.818 254.658C133.001 256.158 134.677 256.908 136.845 256.908ZM161.215 259.176C159.399 259.176 157.852 258.895 156.575 258.332C155.297 257.758 154.33 256.932 153.674 255.854C153.018 254.775 152.69 253.486 152.69 251.986V237.748C152.69 237.279 153.106 237.045 153.938 237.045H154.184C155.016 237.045 155.432 237.279 155.432 237.748V252.092C155.432 253.006 155.684 253.82 156.188 254.535C156.692 255.25 157.383 255.807 158.262 256.205C159.141 256.604 160.125 256.803 161.215 256.803C162.317 256.803 163.307 256.604 164.186 256.205C165.065 255.795 165.75 255.232 166.243 254.518C166.746 253.803 166.998 252.994 166.998 252.092V237.748C166.998 237.279 167.414 237.045 168.246 237.045H168.51C169.33 237.045 169.741 237.279 169.741 237.748V251.986C169.741 253.486 169.413 254.775 168.756 255.854C168.1 256.932 167.133 257.758 165.856 258.332C164.579 258.895 163.032 259.176 161.215 259.176ZM178.115 259C177.787 259 177.546 258.924 177.394 258.771C177.242 258.619 177.166 258.385 177.166 258.068V238.064C177.166 237.736 177.242 237.502 177.394 237.361C177.546 237.209 177.787 237.133 178.115 237.133H189.013C189.236 237.133 189.394 237.203 189.488 237.344C189.593 237.484 189.646 237.725 189.646 238.064V238.574C189.646 238.891 189.593 239.125 189.488 239.277C189.394 239.43 189.236 239.506 189.013 239.506H179.925V246.625H188.082C188.304 246.625 188.462 246.701 188.556 246.854C188.662 247.006 188.714 247.246 188.714 247.574V248.049C188.714 248.377 188.662 248.617 188.556 248.77C188.462 248.91 188.304 248.98 188.082 248.98H179.925V256.627H189.048C189.271 256.627 189.429 256.703 189.523 256.855C189.629 256.996 189.681 257.23 189.681 257.559V258.068C189.681 258.385 189.629 258.619 189.523 258.771C189.429 258.924 189.271 259 189.048 259H178.115ZM200.657 259.176C199.509 259.176 198.436 259.053 197.44 258.807C196.456 258.549 195.665 258.244 195.067 257.893C194.481 257.529 194.188 257.201 194.188 256.908C194.188 256.744 194.253 256.527 194.382 256.258C194.522 255.988 194.68 255.748 194.856 255.537C195.032 255.326 195.173 255.221 195.278 255.221C195.372 255.221 195.577 255.314 195.893 255.502C196.62 255.877 197.341 256.188 198.055 256.434C198.77 256.68 199.637 256.803 200.657 256.803C201.454 256.803 202.163 256.65 202.784 256.346C203.405 256.041 203.886 255.613 204.225 255.062C204.577 254.5 204.753 253.855 204.753 253.129C204.753 252.355 204.542 251.717 204.12 251.213C203.71 250.697 203.206 250.293 202.608 250C202.022 249.695 201.167 249.32 200.042 248.875C198.823 248.406 197.856 247.973 197.141 247.574C196.438 247.164 195.835 246.572 195.331 245.799C194.839 245.025 194.593 244 194.593 242.723C194.593 241.609 194.88 240.613 195.454 239.734C196.028 238.844 196.843 238.152 197.897 237.66C198.952 237.168 200.165 236.922 201.536 236.922C202.157 236.922 202.866 237.01 203.663 237.186C204.46 237.35 205.139 237.578 205.702 237.871C206.276 238.164 206.563 238.486 206.563 238.838C206.563 238.99 206.499 239.201 206.37 239.471C206.253 239.729 206.112 239.963 205.948 240.174C205.784 240.385 205.655 240.49 205.561 240.49C205.456 240.49 205.245 240.402 204.929 240.227C204.401 239.945 203.88 239.723 203.364 239.559C202.848 239.383 202.221 239.295 201.483 239.295C200.276 239.295 199.298 239.605 198.548 240.227C197.809 240.848 197.44 241.715 197.44 242.828C197.44 243.496 197.604 244.047 197.932 244.48C198.261 244.914 198.677 245.26 199.18 245.518C199.684 245.775 200.387 246.074 201.29 246.414C201.348 246.426 201.483 246.473 201.694 246.555C202.936 247.035 203.95 247.504 204.735 247.961C205.532 248.406 206.206 249.051 206.757 249.895C207.319 250.738 207.6 251.816 207.6 253.129C207.6 254.359 207.313 255.432 206.739 256.346C206.177 257.26 205.368 257.963 204.313 258.455C203.27 258.936 202.052 259.176 200.657 259.176ZM218.98 259.053C218.547 259.053 218.23 259 218.031 258.895C217.832 258.777 217.732 258.602 217.732 258.367V239.506H211.721C211.498 239.506 211.34 239.43 211.246 239.277C211.152 239.125 211.105 238.891 211.105 238.574V238.064C211.105 237.736 211.152 237.502 211.246 237.361C211.34 237.209 211.498 237.133 211.721 237.133H226.381C226.604 237.133 226.762 237.209 226.855 237.361C226.949 237.502 226.996 237.736 226.996 238.064V238.574C226.996 238.891 226.949 239.125 226.855 239.277C226.762 239.43 226.604 239.506 226.381 239.506H220.492V258.367C220.492 258.824 220.07 259.053 219.227 259.053H218.98Z" fill="url(#paint0_linear_35_850)"/>
<mask id="path-2-inside-1_35_850" fill="white">
<path d="M195 118.5C195 172.348 151.348 216 97.5 216C43.6522 216 0 172.348 0 118.5C0 64.6522 43.6522 21 97.5 21C151.348 21 195 64.6522 195 118.5ZM19.5417 118.5C19.5417 161.555 54.4448 196.458 97.5 196.458C140.555 196.458 175.458 161.555 175.458 118.5C175.458 75.4448 140.555 40.5417 97.5 40.5417C54.4448 40.5417 19.5417 75.4448 19.5417 118.5Z"/>
</mask>
<path d="M195 118.5C195 172.348 151.348 216 97.5 216C43.6522 216 0 172.348 0 118.5C0 64.6522 43.6522 21 97.5 21C151.348 21 195 64.6522 195 118.5ZM19.5417 118.5C19.5417 161.555 54.4448 196.458 97.5 196.458C140.555 196.458 175.458 161.555 175.458 118.5C175.458 75.4448 140.555 40.5417 97.5 40.5417C54.4448 40.5417 19.5417 75.4448 19.5417 118.5Z" stroke="url(#paint1_linear_35_850)" stroke-width="10" mask="url(#path-2-inside-1_35_850)"/>
<rect x="170.821" y="198.85" width="13.243" height="17.5537" transform="rotate(-49.2274 170.821 198.85)" stroke="#58C3B5" stroke-width="4"/>
<mask id="path-4-inside-2_35_850" fill="white">
<path d="M240.854 147.771C231.259 154.361 220.355 158.805 208.887 160.801C197.419 162.796 185.655 162.297 174.398 159.336C163.14 156.375 152.653 151.023 143.65 143.643C134.648 136.264 127.341 127.031 122.229 116.573C117.117 106.115 114.319 94.6778 114.026 83.041C113.732 71.4041 115.951 59.8408 120.53 49.1386C125.108 38.4364 131.94 28.8468 140.559 21.0231C149.179 13.1995 159.383 7.32547 170.477 3.8013L175.989 21.1517C167.388 23.8838 159.477 28.4376 152.795 34.503C146.113 40.5683 140.817 48.0026 137.267 56.2994C133.717 64.5963 131.997 73.5608 132.225 82.5823C132.452 91.6038 134.621 100.47 138.584 108.578C142.548 116.685 148.212 123.843 155.191 129.564C162.17 135.285 170.3 139.435 179.028 141.73C187.756 144.025 196.875 144.413 205.766 142.865C214.657 141.318 223.11 137.873 230.549 132.764L240.854 147.771Z"/>
</mask>
<path d="M240.854 147.771C231.259 154.361 220.355 158.805 208.887 160.801C197.419 162.796 185.655 162.297 174.398 159.336C163.14 156.375 152.653 151.023 143.65 143.643C134.648 136.264 127.341 127.031 122.229 116.573C117.117 106.115 114.319 94.6778 114.026 83.041C113.732 71.4041 115.951 59.8408 120.53 49.1386C125.108 38.4364 131.94 28.8468 140.559 21.0231C149.179 13.1995 159.383 7.32547 170.477 3.8013L175.989 21.1517C167.388 23.8838 159.477 28.4376 152.795 34.503C146.113 40.5683 140.817 48.0026 137.267 56.2994C133.717 64.5963 131.997 73.5608 132.225 82.5823C132.452 91.6038 134.621 100.47 138.584 108.578C142.548 116.685 148.212 123.843 155.191 129.564C162.17 135.285 170.3 139.435 179.028 141.73C187.756 144.025 196.875 144.413 205.766 142.865C214.657 141.318 223.11 137.873 230.549 132.764L240.854 147.771Z" stroke="url(#paint2_linear_35_850)" stroke-width="8" mask="url(#path-4-inside-2_35_850)"/>
<defs>
<linearGradient id="paint0_linear_35_850" x1="14" y1="248.5" x2="228" y2="248.5" gradientUnits="userSpaceOnUse">
<stop stop-color="#B0DA99"/>
<stop offset="1" stop-color="#58C3B5"/>
</linearGradient>
<linearGradient id="paint1_linear_35_850" x1="31" y1="191" x2="176" y2="59" gradientUnits="userSpaceOnUse">
<stop stop-color="#B0DA99"/>
<stop offset="1" stop-color="#58C3B5"/>
</linearGradient>
<linearGradient id="paint2_linear_35_850" x1="205" y1="104" x2="101" y2="177.5" gradientUnits="userSpaceOnUse">
<stop stop-color="#58C3B5"/>
<stop offset="1" stop-color="#B0DA99"/>
</linearGradient>
</defs>
</svg>
