<svg width="71" height="56" viewBox="0 0 71 56" fill="none" xmlns="http://www.w3.org/2000/svg">
<mask id="path-1-inside-1_35_1086" fill="white">
<path d="M59.2607 38.8364C56.7491 40.1916 53.9843 41.0065 51.1423 41.2295C48.3002 41.4525 45.4431 41.0786 42.7527 40.1315C40.0622 39.1845 37.5973 37.6851 35.5148 35.7287C33.4323 33.7723 31.7777 31.4017 30.6563 28.7678C29.5349 26.1338 28.9712 23.2941 29.0011 20.4294C29.0311 17.5646 29.6539 14.7374 30.8301 12.1277C32.0062 9.51799 33.71 7.18284 35.8329 5.27081C37.9559 3.35877 40.4515 1.9117 43.1611 1.02164L44.5956 5.43223C42.4949 6.12225 40.5602 7.2441 38.9144 8.7264C37.2686 10.2087 35.9477 12.019 35.0359 14.0422C34.1241 16.0654 33.6412 18.2572 33.618 20.4781C33.5948 22.699 34.0318 24.9004 34.9012 26.9424C35.7706 28.9844 37.0533 30.8222 38.6678 32.3389C40.2822 33.8556 42.1931 35.018 44.2789 35.7522C46.3647 36.4864 48.5797 36.7762 50.783 36.6034C52.9863 36.4305 55.1297 35.7987 57.0768 34.7481L59.2607 38.8364Z"/>
</mask>
<path d="M59.2607 38.8364C56.7491 40.1916 53.9843 41.0065 51.1423 41.2295C48.3002 41.4525 45.4431 41.0786 42.7527 40.1315C40.0622 39.1845 37.5973 37.6851 35.5148 35.7287C33.4323 33.7723 31.7777 31.4017 30.6563 28.7678C29.5349 26.1338 28.9712 23.2941 29.0011 20.4294C29.0311 17.5646 29.6539 14.7374 30.8301 12.1277C32.0062 9.51799 33.71 7.18284 35.8329 5.27081C37.9559 3.35877 40.4515 1.9117 43.1611 1.02164L44.5956 5.43223C42.4949 6.12225 40.5602 7.2441 38.9144 8.7264C37.2686 10.2087 35.9477 12.019 35.0359 14.0422C34.1241 16.0654 33.6412 18.2572 33.618 20.4781C33.5948 22.699 34.0318 24.9004 34.9012 26.9424C35.7706 28.9844 37.0533 30.8222 38.6678 32.3389C40.2822 33.8556 42.1931 35.018 44.2789 35.7522C46.3647 36.4864 48.5797 36.7762 50.783 36.6034C52.9863 36.4305 55.1297 35.7987 57.0768 34.7481L59.2607 38.8364Z" stroke="url(#paint0_linear_35_1086)" stroke-width="8" mask="url(#path-1-inside-1_35_1086)"/>
<mask id="path-2-inside-2_35_1086" fill="white">
<path d="M49.4565 30.2044C49.4565 43.9297 38.3853 55.0562 24.7283 55.0562C11.0712 55.0562 0 43.9297 0 30.2044C0 16.4792 11.0712 5.35269 24.7283 5.35269C38.3853 5.35269 49.4565 16.4792 49.4565 30.2044ZM4.95622 30.2044C4.95622 41.1788 13.8085 50.0752 24.7283 50.0752C35.6481 50.0752 44.5003 41.1788 44.5003 30.2044C44.5003 19.2301 35.6481 10.3337 24.7283 10.3337C13.8085 10.3337 4.95622 19.2301 4.95622 30.2044Z"/>
</mask>
<path d="M49.4565 30.2044C49.4565 43.9297 38.3853 55.0562 24.7283 55.0562C11.0712 55.0562 0 43.9297 0 30.2044C0 16.4792 11.0712 5.35269 24.7283 5.35269C38.3853 5.35269 49.4565 16.4792 49.4565 30.2044ZM4.95622 30.2044C4.95622 41.1788 13.8085 50.0752 24.7283 50.0752C35.6481 50.0752 44.5003 41.1788 44.5003 30.2044C44.5003 19.2301 35.6481 10.3337 24.7283 10.3337C13.8085 10.3337 4.95622 19.2301 4.95622 30.2044Z" stroke="url(#paint1_linear_35_1086)" stroke-width="10" mask="url(#path-2-inside-2_35_1086)"/>
<rect x="1.54257" y="-0.114019" width="2.19288" height="3.2853" transform="matrix(0.651192 -0.758913 0.755695 0.654923 42.2185 52.1465)" stroke="#58C3B5" stroke-opacity="0.6" stroke-width="2.19288"/>
<defs>
<linearGradient id="paint0_linear_35_1086" x1="22.5" y1="41" x2="54.5" y2="18.5" gradientUnits="userSpaceOnUse">
<stop stop-color="#B0DA99"/>
<stop offset="1" stop-color="#58C3B5"/>
</linearGradient>
<linearGradient id="paint1_linear_35_1086" x1="4" y1="50.5" x2="43" y2="17" gradientUnits="userSpaceOnUse">
<stop stop-color="#B0DA99"/>
<stop offset="1" stop-color="#58C3B5"/>
</linearGradient>
</defs>
</svg>
